<?xml version="1.0" encoding="UTF-8" standalone="no"?>
        <svg version="1.1" xmlns="http://www.w3.org/2000/svg" xmlns:xlink="http://www.w3.org/1999/xlink" height="30" width="30">
            <clipPath id="clipCircle">
                <circle cx="15" cy="15" r="15"/>
            </clipPath>
            <circle fill="#dea497" cx="15" cy="15" r="15"/>
            <g clip-path="url(#clipCircle)">
    

  <g transform="
            matrix(1.0, 0.0, 0.0, 1.0, 0.0, 0.0) translate(7.726193904876709, 9.465306282043457) rotate(-1.241143822669983) scale(0.15000000596046448) scale(1,1)
        ">
    <path d="M10.95 -10.95 Q15.5 -6.4 15.5 0.0 15.5 6.4 10.95 10.95 6.4 15.5 0.0 15.5 -6.4 15.5 -10.95 10.95 -15.5 6.4 -15.5 0.0 -15.5 -6.4 -10.95 -10.95 -6.4 -15.5 0.0 -15.5 6.4 -15.5 10.95 -10.95" fill="#ffffff" fill-rule="evenodd" stroke="none"/>
  </g>



  <g transform="
            matrix(1.0, 0.0, 0.0, 1.0, 0.0, 0.0) translate(7.726193904876709, 9.556506156921387) rotate(-24.90165138244629) scale(0.0495530366897583) scale(1,1)
        ">
    <path d="M10.95 -10.95 Q15.5 -6.4 15.5 0.0 15.5 6.4 10.95 10.95 6.4 15.5 0.0 15.5 -6.4 15.5 -10.95 10.95 -15.5 6.4 -15.5 0.0 -15.5 -6.4 -10.95 -10.95 -6.4 -15.5 0.0 -15.5 6.4 -15.5 10.95 -10.95" fill="#000000" fill-rule="evenodd" stroke="none"/>
  </g>



  <g transform="
            matrix(1.0, 0.0, 0.0, 1.0, 0.0, 0.0) translate(22.27380609512329, 9.557142734527588) rotate(-4.88979434967041) scale(0.15000000596046448) scale(1,1)
        ">
    <path d="M10.95 -10.95 Q15.5 -6.4 15.5 0.0 15.5 6.4 10.95 10.95 6.4 15.5 0.0 15.5 -6.4 15.5 -10.95 10.95 -15.5 6.4 -15.5 0.0 -15.5 -6.4 -10.95 -10.95 -6.4 -15.5 0.0 -15.5 6.4 -15.5 10.95 -10.95" fill="#ffffff" fill-rule="evenodd" stroke="none"/>
  </g>



  <g transform="
            matrix(1.0, 0.0, 0.0, 1.0, 0.0, 0.0) translate(22.319724559783936, 9.556506156921387) rotate(-17.506547927856445) scale(0.0495530366897583) scale(1,1)
        ">
    <path d="M10.95 -10.95 Q15.5 -6.4 15.5 0.0 15.5 6.4 10.95 10.95 6.4 15.5 0.0 15.5 -6.4 15.5 -10.95 10.95 -15.5 6.4 -15.5 0.0 -15.5 -6.4 -10.95 -10.95 -6.4 -15.5 0.0 -15.5 6.4 -15.5 10.95 -10.95" fill="#000000" fill-rule="evenodd" stroke="none"/>
  </g>



  <g transform="
            matrix(1.0, 0.0, 0.0, 1.0, 0.0, 0.0) translate(17.755102157592773, -3.5051021575927734) rotate(-28.479177474975586) scale(0.6767849326133728) scale(1,1)
        ">
    <path d="M10.95 -10.95 Q15.5 -6.4 15.5 0.0 15.5 6.4 10.95 10.95 6.4 15.5 0.0 15.5 -6.4 15.5 -10.95 10.95 -15.5 6.4 -15.5 0.0 -15.5 -6.4 -10.95 -10.95 -6.4 -15.5 0.0 -15.5 6.4 -15.5 10.95 -10.95" fill="#000000" fill-rule="evenodd" stroke="none"/>
  </g>



  <g transform="
            matrix(1.0, 0.0, 0.0, 1.0, 0.0, 0.0) translate(15, 19.638869762420654) rotate(0) scale(0.18481355905532837) scale(1,1)
        ">
    <path d="M-6.05 -5.3 L-4.0 -4.95 -0.3 -4.45 5.6 -4.95 Q8.0 -5.2 8.05 -2.4 8.05 0.4 5.65 2.8 3.2 5.3 0.1 5.3 -3.0 5.3 -5.4 2.8 -7.2 1.15 -7.8 -1.4 -8.4 -3.85 -7.35 -4.95 L-6.05 -5.3" fill="#eb3718" fill-rule="evenodd" stroke="none"/>
  </g>



	<g transform="
            matrix(1.0, 0.0, 0.0, 1.0, 0.0, 0.0) translate(21.51481533050537, 16.715733766555786) rotate(90) scale(0.04285714402794838) scale(1,1)
        ">
		<path fill="#ff0000" fill-rule="evenodd" stroke="none" stroke-width="1.33333" d="M -10,-50 L 10,-50 L 10,50 L -10,50 Z "/>
	</g>



	<g transform="
            matrix(1.0, 0.0, 0.0, 1.0, 0.0, 0.0) translate(24.857142448425293, 16.715733766555786) rotate(90) scale(0.04285714402794838) scale(1,1)
        ">
		<path fill="#ff0000" fill-rule="evenodd" stroke="none" stroke-width="1.33333" d="M -10,-50 L 10,-50 L 10,50 L -10,50 Z "/>
	</g>



	<g transform="
            matrix(1.0, 0.0, 0.0, 1.0, 0.0, 0.0) translate(21.51481533050537, 17.528571367263794) rotate(90) scale(0.04285714402794838) scale(1,1)
        ">
		<path fill="#ff6b00" fill-rule="evenodd" stroke="none" stroke-width="1.33333" d="M -10,-50 L 10,-50 L 10,50 L -10,50 Z "/>
	</g>



	<g transform="
            matrix(1.0, 0.0, 0.0, 1.0, 0.0, 0.0) translate(24.857142448425293, 17.528571367263794) rotate(90) scale(0.04285714402794838) scale(1,1)
        ">
		<path fill="#ff6b00" fill-rule="evenodd" stroke="none" stroke-width="1.33333" d="M -10,-50 L 10,-50 L 10,50 L -10,50 Z "/>
	</g>



	<g transform="
            matrix(1.0, 0.0, 0.0, 1.0, 0.0, 0.0) translate(21.51481533050537, 18.342857122421265) rotate(90) scale(0.04285714402794838) scale(1,1)
        ">
		<path fill="#ffd000" fill-rule="evenodd" stroke="none" stroke-width="1.33333" d="M -10,-50 L 10,-50 L 10,50 L -10,50 Z "/>
	</g>



	<g transform="
            matrix(1.0, 0.0, 0.0, 1.0, 0.0, 0.0) translate(24.857142448425293, 18.342857122421265) rotate(90) scale(0.04285714402794838) scale(1,1)
        ">
		<path fill="#ffd000" fill-rule="evenodd" stroke="none" stroke-width="1.33333" d="M -10,-50 L 10,-50 L 10,50 L -10,50 Z "/>
	</g>



	<g transform="
            matrix(1.0, 0.0, 0.0, 1.0, 0.0, 0.0) translate(21.51481533050537, 19.157142639160156) rotate(90) scale(0.04285714402794838) scale(1,1)
        ">
		<path fill="#00ff00" fill-rule="evenodd" stroke="none" stroke-width="1.33333" d="M -10,-50 L 10,-50 L 10,50 L -10,50 Z "/>
	</g>



	<g transform="
            matrix(1.0, 0.0, 0.0, 1.0, 0.0, 0.0) translate(24.857142448425293, 19.157142639160156) rotate(90) scale(0.04285714402794838) scale(1,1)
        ">
		<path fill="#00ff00" fill-rule="evenodd" stroke="none" stroke-width="1.33333" d="M -10,-50 L 10,-50 L 10,50 L -10,50 Z "/>
	</g>



	<g transform="
            matrix(1.0, 0.0, 0.0, 1.0, 0.0, 0.0) translate(21.51481533050537, 19.971428394317627) rotate(90) scale(0.04285714402794838) scale(1,1)
        ">
		<path fill="#0000ff" fill-rule="evenodd" stroke="none" stroke-width="1.33333" d="M -10,-50 L 10,-50 L 10,50 L -10,50 Z "/>
	</g>



	<g transform="
            matrix(1.0, 0.0, 0.0, 1.0, 0.0, 0.0) translate(24.857142448425293, 19.971428394317627) rotate(90) scale(0.04285714402794838) scale(1,1)
        ">
		<path fill="#0000ff" fill-rule="evenodd" stroke="none" stroke-width="1.33333" d="M -10,-50 L 10,-50 L 10,50 L -10,50 Z "/>
	</g>



	<g transform="
            matrix(1.0, 0.0, 0.0, 1.0, 0.0, 0.0) translate(21.51481533050537, 20.785714149475098) rotate(90) scale(0.04285714402794838) scale(1,1)
        ">
		<path fill="#6b00f5" fill-rule="evenodd" stroke="none" stroke-width="1.33333" d="M -10,-50 L 10,-50 L 10,50 L -10,50 Z "/>
	</g>



	<g transform="
            matrix(1.0, 0.0, 0.0, 1.0, 0.0, 0.0) translate(24.857142448425293, 20.785714149475098) rotate(90) scale(0.04285714402794838) scale(1,1)
        ">
		<path fill="#6b00f5" fill-rule="evenodd" stroke="none" stroke-width="1.33333" d="M -10,-50 L 10,-50 L 10,50 L -10,50 Z "/>
	</g>



  <g transform="
            matrix(1.0, 0.0, 0.0, 1.0, 0.0, 0.0) translate(15, 25.285714149475098) rotate(0) scale(0.055714286863803864) scale(1,1)
        ">
    <path d="M0.3 -6.9 Q6.2 -6.75 11.05 -4.35 13.25 -3.3 15.45 -1.65 L18.8 1.3 Q20.6 3.4 20.75 4.1 20.9 4.9 19.8 6.0 18.5 7.25 17.5 6.85 16.55 6.45 12.05 2.85 10.75 1.75 8.4 0.6 6.1 -0.5 4.15 -1.0 -0.45 -2.25 -5.2 -0.95 -10.0 0.35 -13.95 3.85 -16.95 6.6 -18.8 6.65 -20.7 6.7 -20.7 4.15 -20.7 2.45 -17.5 -0.35 -14.35 -3.1 -10.2 -5.0 -5.65 -7.1 0.3 -6.9" fill="#000000" fill-rule="evenodd" stroke="none"/>
  </g>



	<g transform="
            matrix(1.0, 0.0, 0.0, 1.0, 0.0, 0.0) translate(15, 18.089257955551147) rotate(90) scale(0.04285714402794838) scale(1,1)
        ">
		<path fill="#000000" fill-rule="evenodd" stroke="none" stroke-width="1.33333" d="M -20,-50 L 20,-50 L 20,50 L -20,50 Z "/>
	</g>



  <g transform="
            matrix(1.0, 0.0, 0.0, 1.0, 0.0, 0.0) translate(14.014285743236542, 14.957093641161919) rotate(-90) scale(0.08571428805589676) scale(1,1)
        ">
    <path d="M-6.35 -5.9 Q0.0 -9.0 6.5 -5.9 13.0 -2.8 14.1 3.85 14.65 7.15 13.65 7.45 12.65 7.75 11.9 4.45 10.9 0.1 7.45 -2.45 4.3 -4.8 0.2 -4.85 -3.9 -4.9 -7.0 -2.65 -10.4 -0.2 -11.2 4.2 -11.5 5.65 -12.05 6.55 -12.6 7.45 -13.2 7.45 -14.05 7.45 -14.25 6.85 L-14.05 4.7 Q-13.15 1.25 -11.1 -1.65 -8.95 -4.7 -6.35 -5.9" fill="#000000" fill-rule="evenodd" stroke="none"/>
  </g>



  <g transform="
            matrix(1.0, 0.0, 0.0, 1.0, 0.0, 0.0) translate(14.581749022006989, 12.579756736755371) rotate(90) scale(0.06428571790456772) scale(1,1)
        ">
    <path d="M0.3 -1.8 L18.05 -1.25 Q21.45 -0.95 21.65 0.2 21.85 1.45 18.7 1.7 L0.6 1.95 Q-20.75 1.95 -21.4 1.4 -21.9 0.8 -21.4 -0.6 -21.15 -1.5 -17.05 -1.75 -12.8 -2.0 0.3 -1.8" fill="#000000" fill-rule="evenodd" stroke="none"/>
  </g>

</g></svg>